<svg width="164" height="37" viewBox="0 0 164 37" fill="none" xmlns="http://www.w3.org/2000/svg">
<path fill-rule="evenodd" clip-rule="evenodd" d="M38.2595 3.06239C37.3194 2.59024 36.1561 2.45109 34.8561 2.68757C34.0546 2.83396 33.2 3.12352 32.3138 3.56511C31.463 3.99061 30.6484 4.52389 29.8766 5.14244L33.0075 6.71574C33.7793 6.0972 34.5939 5.56391 35.4438 5.13922C36.33 4.69683 37.1836 4.40726 37.9861 4.26087C39.2861 4.02439 40.4494 4.16354 41.3895 4.6357L38.2595 3.06239Z" fill="#BF9351"/>
<mask id="mask0" mask-type="alpha" maskUnits="userSpaceOnUse" x="0" y="0" width="31" height="35">
<path fill-rule="evenodd" clip-rule="evenodd" d="M0 0.609169H30.3026V34.2347H0V0.609169Z" fill="white"/>
</mask>
<g mask="url(#mask0)">
<path fill-rule="evenodd" clip-rule="evenodd" d="M27.1726 1.17282C26.0865 0.626667 24.7409 0.466602 23.2382 0.74008C22.3102 0.908993 21.3217 1.2436 20.2961 1.75597C18.5898 2.60858 16.9876 3.84728 15.5983 5.31199C13.0421 8.00736 11.2065 11.4677 10.762 14.6891C9.99487 14.8387 9.17285 15.1226 8.32945 15.5441C6.85838 16.2785 5.47751 17.345 4.28075 18.6063C1.71614 21.3065 -0.00971918 24.8971 -0.000420372 28.0228C0.00794856 30.3023 0.9369 31.9069 2.4368 32.6606L5.56678 34.2347C4.06595 33.4803 3.137 31.8756 3.12956 29.5961C3.11933 26.4704 4.84612 22.8798 7.4098 20.1796C8.60749 18.9183 9.98743 17.8518 11.4594 17.1174C12.3019 16.6959 13.1248 16.412 13.8911 16.2624C14.3356 13.041 16.1721 9.58067 18.7283 6.8853C20.1176 5.42058 21.7188 4.18188 23.4261 3.32928C24.4508 2.81691 25.4393 2.4823 26.3673 2.31338C27.8709 2.0391 29.2155 2.19997 30.3025 2.74612L27.1726 1.17282Z" fill="#BF9351"/>
</g>
<path fill-rule="evenodd" clip-rule="evenodd" d="M23.4258 3.32944C28.2668 0.911568 32.2895 2.44465 33.0073 6.71574C33.7791 6.0972 34.5937 5.56392 35.4436 5.13922C40.0577 2.83476 43.8125 4.68557 43.8274 9.27115C43.8423 13.8575 40.1116 19.4462 35.4975 21.7506L11.5131 33.729C6.89254 36.0366 3.14419 34.1826 3.12932 29.5962C3.11444 25.0098 6.83768 19.4252 11.4583 17.1176C12.3026 16.6961 13.1246 16.4122 13.8908 16.2625C14.5771 11.2901 18.5774 5.75052 23.4258 3.32944" fill="#DCC981"/>
<path fill-rule="evenodd" clip-rule="evenodd" d="M62.7052 5.31441C61.7651 4.84225 60.6018 4.7031 59.3019 4.93958C58.4994 5.08597 57.6457 5.37554 56.7586 5.81712C55.9087 6.24182 55.0942 6.77591 54.3224 7.39445L57.4523 8.96775C58.2241 8.34921 59.0387 7.81512 59.8896 7.39123C60.7748 6.94804 61.6294 6.65928 62.4309 6.51288C63.7318 6.27641 64.8942 6.41556 65.8343 6.88771L62.7052 5.31441Z" fill="#3CAFA9"/>
<path fill-rule="evenodd" clip-rule="evenodd" d="M51.6138 3.41977C50.5277 2.87361 49.1821 2.71274 47.6795 2.98622C46.7514 3.15514 45.7648 3.48974 44.741 4.00131C43.0403 4.8507 41.4427 6.08618 40.0563 7.54848C37.4982 10.2463 35.6589 13.713 35.2135 16.9376C34.4398 17.0905 33.6243 17.3712 32.7744 17.7959C31.3052 18.5294 29.9262 19.596 28.7294 20.8564C26.1648 23.5566 24.4352 27.1488 24.4454 30.2745C24.4529 32.5532 25.3837 34.1563 26.8827 34.9108L30.0126 36.4833C28.5127 35.7296 27.5819 34.1265 27.5745 31.8478C27.5643 28.7221 29.2948 25.1299 31.8585 22.4297C33.0561 21.1685 34.4352 20.1027 35.9034 19.3692C36.7552 18.9445 37.5698 18.6638 38.3434 18.5109C38.7889 15.2855 40.6282 11.8196 43.1863 9.12179C44.5727 7.65948 46.1703 6.42401 47.871 5.57381C48.8939 5.06305 49.8814 4.72844 50.8085 4.55953C52.3121 4.28605 53.6567 4.44692 54.7438 4.99307L51.6138 3.41977Z" fill="#3CAFA9"/>
<path fill-rule="evenodd" clip-rule="evenodd" d="M47.8706 5.57397C52.7116 3.1569 56.7352 4.69643 57.4521 8.96751C58.2239 8.34897 59.0385 7.81569 59.8893 7.39099C64.5034 5.08653 68.2573 6.93734 68.2722 11.5229C68.2871 16.1093 64.5573 21.6979 59.9433 24.0024L35.9579 35.9807C31.3448 38.2852 27.5899 36.4344 27.5751 31.848C27.5602 27.2616 31.2899 21.673 35.904 19.3685C36.7548 18.9446 37.5703 18.6639 38.3431 18.5103C39.0293 13.5386 43.0297 7.99184 47.8706 5.57397Z" fill="#22E4D9"/>
<path d="M81.9397 26V12.92H86.3597C87.0397 12.92 87.6731 12.9867 88.2597 13.12C88.8464 13.2533 89.3531 13.4733 89.7797 13.78C90.2064 14.0733 90.5397 14.4667 90.7797 14.96C91.0331 15.4533 91.1597 16.0667 91.1597 16.8C91.1597 17.8 90.9197 18.6067 90.4397 19.22C89.9731 19.8333 89.3464 20.2733 88.5597 20.54L91.6797 26H89.0797L86.2597 20.88H84.2597V26H81.9397ZM84.2597 19.04H86.1197C87.0131 19.04 87.6931 18.8533 88.1597 18.48C88.6397 18.1067 88.8797 17.5467 88.8797 16.8C88.8797 16.04 88.6397 15.5133 88.1597 15.22C87.6931 14.9267 87.0131 14.78 86.1197 14.78H84.2597V19.04ZM93.2259 26V16.18H95.5259V26H93.2259ZM94.3859 14.46C93.9725 14.46 93.6325 14.34 93.3659 14.1C93.0992 13.86 92.9659 13.5467 92.9659 13.16C92.9659 12.7733 93.0992 12.46 93.3659 12.22C93.6325 11.9667 93.9725 11.84 94.3859 11.84C94.7992 11.84 95.1392 11.9667 95.4059 12.22C95.6725 12.46 95.8059 12.7733 95.8059 13.16C95.8059 13.5467 95.6725 13.86 95.4059 14.1C95.1392 14.34 94.7992 14.46 94.3859 14.46ZM100.85 26.24C100.17 26.24 99.4971 26.1133 98.8304 25.86C98.1771 25.5933 97.6104 25.2667 97.1304 24.88L98.2104 23.4C98.6504 23.7467 99.0838 24.02 99.5104 24.22C99.9504 24.4067 100.424 24.5 100.93 24.5C101.464 24.5 101.857 24.3933 102.11 24.18C102.364 23.9533 102.49 23.6667 102.49 23.32C102.49 23.12 102.43 22.9467 102.31 22.8C102.19 22.64 102.03 22.5 101.83 22.38C101.63 22.26 101.404 22.1533 101.15 22.06C100.897 21.9533 100.644 21.8467 100.39 21.74C100.07 21.62 99.7438 21.48 99.4104 21.32C99.0771 21.16 98.7771 20.9667 98.5104 20.74C98.2571 20.5133 98.0438 20.2533 97.8704 19.96C97.7104 19.6533 97.6304 19.2933 97.6304 18.88C97.6304 18.0133 97.9504 17.3067 98.5904 16.76C99.2304 16.2133 100.104 15.94 101.21 15.94C101.89 15.94 102.504 16.06 103.05 16.3C103.597 16.54 104.07 16.8133 104.47 17.12L103.41 18.52C103.064 18.2667 102.71 18.0667 102.35 17.92C102.004 17.76 101.637 17.68 101.25 17.68C100.757 17.68 100.39 17.7867 100.15 18C99.9238 18.2 99.8104 18.4533 99.8104 18.76C99.8104 18.96 99.8638 19.1333 99.9704 19.28C100.09 19.4133 100.244 19.5333 100.43 19.64C100.617 19.7467 100.83 19.8467 101.07 19.94C101.324 20.0333 101.584 20.1267 101.85 20.22C102.184 20.34 102.517 20.48 102.85 20.64C103.184 20.7867 103.484 20.9733 103.75 21.2C104.03 21.4267 104.25 21.7067 104.41 22.04C104.584 22.36 104.67 22.7467 104.67 23.2C104.67 23.6267 104.584 24.0267 104.41 24.4C104.25 24.76 104.01 25.08 103.69 25.36C103.37 25.6267 102.97 25.84 102.49 26C102.01 26.16 101.464 26.24 100.85 26.24ZM110.574 26.24C109.894 26.24 109.261 26.1267 108.674 25.9C108.087 25.66 107.574 25.32 107.134 24.88C106.694 24.44 106.347 23.9067 106.094 23.28C105.854 22.64 105.734 21.9133 105.734 21.1C105.734 20.3 105.861 19.58 106.114 18.94C106.367 18.3 106.701 17.76 107.114 17.32C107.541 16.88 108.027 16.54 108.574 16.3C109.121 16.06 109.681 15.94 110.254 15.94C110.921 15.94 111.507 16.0533 112.014 16.28C112.521 16.5067 112.941 16.8267 113.274 17.24C113.621 17.6533 113.881 18.1467 114.054 18.72C114.227 19.2933 114.314 19.92 114.314 20.6C114.314 20.8267 114.301 21.04 114.274 21.24C114.261 21.44 114.241 21.6 114.214 21.72H107.974C108.081 22.6 108.387 23.28 108.894 23.76C109.414 24.2267 110.074 24.46 110.874 24.46C111.301 24.46 111.694 24.4 112.054 24.28C112.427 24.1467 112.794 23.9667 113.154 23.74L113.934 25.18C113.467 25.4867 112.947 25.74 112.374 25.94C111.801 26.14 111.201 26.24 110.574 26.24ZM107.954 20.16H112.314C112.314 19.4 112.147 18.8067 111.814 18.38C111.494 17.94 110.994 17.72 110.314 17.72C109.727 17.72 109.214 17.9267 108.774 18.34C108.334 18.7533 108.061 19.36 107.954 20.16ZM116.361 26V12.92H118.741L122.821 20.28L124.161 23.06H124.241C124.188 22.38 124.121 21.6533 124.041 20.88C123.974 20.0933 123.941 19.3333 123.941 18.6V12.92H126.161V26H123.781L119.701 18.64L118.361 15.86H118.281C118.334 16.5533 118.394 17.28 118.461 18.04C118.541 18.8 118.581 19.5467 118.581 20.28V26H116.361ZM132.956 26.24C132.343 26.24 131.756 26.1267 131.196 25.9C130.636 25.6733 130.136 25.34 129.696 24.9C129.269 24.46 128.929 23.92 128.676 23.28C128.423 22.64 128.296 21.9133 128.296 21.1C128.296 20.2867 128.423 19.56 128.676 18.92C128.929 18.28 129.269 17.74 129.696 17.3C130.136 16.86 130.636 16.5267 131.196 16.3C131.756 16.06 132.343 15.94 132.956 15.94C133.569 15.94 134.156 16.06 134.716 16.3C135.289 16.5267 135.789 16.86 136.216 17.3C136.643 17.74 136.983 18.28 137.236 18.92C137.503 19.56 137.636 20.2867 137.636 21.1C137.636 21.9133 137.503 22.64 137.236 23.28C136.983 23.92 136.643 24.46 136.216 24.9C135.789 25.34 135.289 25.6733 134.716 25.9C134.156 26.1267 133.569 26.24 132.956 26.24ZM132.956 24.36C133.676 24.36 134.243 24.0667 134.656 23.48C135.069 22.88 135.276 22.0867 135.276 21.1C135.276 20.1 135.069 19.3067 134.656 18.72C134.243 18.12 133.676 17.82 132.956 17.82C132.236 17.82 131.669 18.12 131.256 18.72C130.856 19.3067 130.656 20.1 130.656 21.1C130.656 22.0867 130.856 22.88 131.256 23.48C131.669 24.0667 132.236 24.36 132.956 24.36ZM141.066 26L138.466 16.18H140.786L141.966 21.28C142.072 21.7467 142.159 22.2133 142.226 22.68C142.306 23.1467 142.392 23.62 142.486 24.1H142.566C142.659 23.62 142.752 23.1467 142.846 22.68C142.952 22.2133 143.066 21.7467 143.186 21.28L144.466 16.18H146.566L147.866 21.28C147.986 21.7467 148.099 22.2133 148.206 22.68C148.312 23.1467 148.419 23.62 148.526 24.1H148.606C148.699 23.62 148.786 23.1467 148.866 22.68C148.946 22.2133 149.032 21.7467 149.126 21.28L150.306 16.18H152.466L149.966 26H147.226L146.086 21.42C145.979 20.9533 145.879 20.4933 145.786 20.04C145.692 19.5733 145.592 19.08 145.486 18.56H145.406C145.312 19.08 145.219 19.5733 145.126 20.04C145.032 20.5067 144.932 20.9733 144.826 21.44L143.706 26H141.066Z" fill="white"/>
</svg>
